# xmcd
#
# Track frame offsets: 
#        150
#        12813
#        24651
#        44074
#        60269
#        80039
#        93375
#        103577
#        126055
#        138500
#        152683
#        175221
#        196235
#        209060
#        221304
#        235070
#        255079
#        265810
#        290733
#        303775
#
# Disc length: 4230 seconds
#
# Revision: 1
# Processed by: cddbd v1.5.2PL0 Copyright (c) Steve Scherf et al.
# Submitted via: ExactAudioCopy v0.95a5
#
DISCID=13108414
DTITLE=Rock&Pop - Blues 5 
DYEAR=1900
DGENRE=
TTITLE0=Muddy Watters - Hoochie coochie man
TTITLE1=Yardbirds - I'm a man
TTITLE2=Yardbirds - New York city
TTITLE3=Albert King - Watermelon man
TTITLE4=Howli'n wolf - Wang Dan Doodle
TTITLE5=Eric Clapton - Too much money business
TTITLE6=Don Garner and Dee Dee Ford - I need your lovi'n
TTITLE7=Sonny Boy Williamson and The Animals - Boom Boom
TTITLE8=Robert Cray - Too many cooks
TTITLE9=Ray Charles - Blues is my middle name
TTITLE10=Jerry Lee Lewis - Whole lotta shakin' goin' on
TTITLE11=Mike Bloomfield - Woman lovin' each other
TTITLE12=Mississipi Fred Mcdowell - You got to move
TTITLE13=T. Bone Walker - Stormy monday blues
TTITLE14=Willie Dixon - Walking the blues
TTITLE15=Jimmi Hendrix - Under the table
TTITLE16=Wilbert Harrison - Kansas city
TTITLE17=Scremin' Jay Hawkins - Constipation blues
TTITLE18=Willie Mabon - Poisson Ivy
TTITLE19=Charlie Parker - Parker's mood
EXTD=
EXTT0=
EXTT1=
EXTT2=
EXTT3=
EXTT4=
EXTT5=
EXTT6=
EXTT7=
EXTT8=
EXTT9=
EXTT10=
EXTT11=
EXTT12=
EXTT13=
EXTT14=
EXTT15=
EXTT16=
EXTT17=
EXTT18=
EXTT19=
PLAYORDER=
